<?xml version="1.0" encoding="UTF-8" standalone="no"?>
<svg xmlns="http://www.w3.org/2000/svg" xmlns:xlink="http://www.w3.org/1999/xlink" xmlns:serif="http://www.serif.com/" width="100%" height="100%" viewBox="0 0 600 243" version="1.1" xml:space="preserve" style="fill-rule:evenodd;clip-rule:evenodd;stroke-linejoin:round;stroke-miterlimit:2;">
    <path d="M87.687,187.891C94.282,187.671 107.139,187.062 113.157,188.778C111.188,188.94 108.815,188.512 106.963,189.024L107.632,189.75C104.04,189.062 100.239,190.081 96.673,189.28L96.566,188.948C94.972,187.925 90.023,188.844 87.687,187.891Z" style="fill:rgb(254,254,254);fill-opacity:0.98;fill-rule:nonzero;"></path>
    <path d="M124.699,188.161C129.119,187.099 148.675,187.539 152.967,188.788C151.453,188.89 147.111,188.449 146.234,189.421C143.515,189.879 139.547,189.718 136.843,189.339L136.773,189.108C135.689,188.168 126.843,188.363 124.699,188.161Z" style="fill:rgb(254,254,254);fill-opacity:0.98;fill-rule:nonzero;"></path>
    <path d="M277.627,201.117L277.714,201.274C278.018,201.83 278.159,202.311 278.266,202.933L279.016,203.089C279.225,204.206 271.566,227.886 270.56,229.323C270.429,229.51 270.234,229.661 270.048,229.791C270.219,228.94 270.432,228.478 270.118,227.657L268.775,227.252C268.933,227.147 268.913,227.167 269.042,227.064C269.082,227.032 269.121,226.999 269.16,226.967C269.282,226.869 269.295,226.867 269.408,226.75C269.935,226.203 277.662,202.556 277.627,201.117Z" style="fill:rgb(254,254,254);fill-opacity:0.98;fill-rule:nonzero;"></path>
    <path d="M462.436,187.746C465.067,187.615 468.566,187.419 470.974,188.626L470.73,188.999C469.176,189.609 467.709,189.587 466.064,189.596C466.218,189.866 466.327,190.139 466.404,190.44C467.066,193.04 466.534,208.9 466.531,212.933C466.526,220.065 466.97,227.413 466.572,234.52C466.523,235.385 466.369,235.98 465.912,236.719C466.841,236.72 467.825,236.697 468.74,236.872C469.5,237.017 470.366,237.323 470.814,237.957C468.666,239.102 464.639,238.635 462.231,238.623C459.692,238.638 456.074,238.933 453.706,238.038L453.935,237.46C455.319,236.804 456.458,236.754 457.964,236.738C458.734,233.467 458.195,226.361 458.198,222.731C458.208,211.685 458.46,200.552 457.962,189.516C457.238,189.294 456.119,189.577 455.321,189.454C454.657,189.351 454.229,189.136 453.831,188.612C455.264,187.393 460.478,187.775 462.436,187.746Z" style="fill:rgb(254,254,254);fill-rule:nonzero;"></path>
    <path d="M199.387,187.428C199.686,187.311 200.013,187.43 200.316,187.493C200.455,187.732 200.574,187.984 200.614,188.259C200.884,190.129 200.774,203.033 199.901,204.155L199.403,204.177C197.573,203.042 196.021,193.784 193.627,191.109C192.808,190.194 191.817,189.701 190.621,189.461C187.815,188.898 179.271,189.629 175.503,189.463C176.3,194.545 175.951,206.072 175.636,211.411C177.703,211.241 179.797,211.532 181.851,211.3C187.058,210.71 186.302,204.392 188.797,201.25L189.183,201.22C189.261,201.379 189.329,201.54 189.385,201.708C190.194,204.156 189.939,221.237 189.015,222.915L188.634,222.925C186.77,220.343 186.842,216.35 184.559,213.996C183.124,212.515 177.63,213.15 175.61,213.085C175.765,218.768 176.42,231.658 175.466,236.719C178.64,236.818 181.814,236.889 184.989,236.93C186.855,236.947 188.997,237.146 190.771,236.492C197.384,234.054 197.075,221.927 199.799,219.851C200.222,219.529 200.4,219.608 200.9,219.656C201.636,220.87 201.47,236.211 201.399,238.628C195.913,238.549 166.953,239.338 164.291,237.788L164.296,237.428C165.287,236.804 166.498,236.835 167.634,236.756C167.017,229.547 167.391,222.068 167.401,214.827C167.414,206.406 167.153,197.91 167.444,189.499C166.635,189.497 165.706,189.559 164.913,189.417C164.224,189.294 163.912,189.025 163.542,188.465C164.043,187.963 164.768,187.943 165.446,187.89C176.71,187.009 188.095,188.579 199.387,187.428Z" style="fill:rgb(254,254,254);fill-rule:nonzero;"></path>
    <path d="M79.483,187.427C79.674,187.437 80.022,187.391 80.147,187.537C80.89,188.406 80.36,198.46 80.228,200.22C80.138,201.428 80.135,203.285 79.173,204.113C77.874,203.218 75.738,195.699 74.915,193.852C74.251,192.361 73.44,191.008 72.52,189.664C66.852,189.239 61.11,189.658 55.426,189.471C56.14,195.149 55.755,205.503 55.485,211.459C58.16,211.145 61.131,211.888 63.67,210.906C65.959,208.871 66.451,205.512 67.671,202.843C67.98,202.166 68.254,201.63 68.963,201.372C70.164,202.904 69.883,218.807 69.506,221.69C69.406,222.451 69.281,222.96 68.679,223.429C67.557,222.653 66.085,216.004 64.243,214.107C62.685,212.502 57.653,213.131 55.514,213.086C55.576,219.529 56.267,230.759 55.369,236.751L63.618,236.914L64.097,236.919C66.061,236.939 68.224,237.11 70.142,236.61C75.246,235.279 76.492,227.85 77.995,223.446C78.387,222.295 78.789,220.689 79.699,219.845C79.873,219.684 80.155,219.775 80.385,219.792C81.319,221.418 81.161,236.052 81.069,238.574C75.635,238.919 69.946,238.582 64.486,238.587C58.497,238.594 52.248,238.958 46.284,238.478C45.363,238.403 44.458,238.328 43.666,237.804L43.659,237.302C44.575,236.705 46.268,236.82 47.35,236.751C46.771,231.772 47.167,226.37 47.166,221.348C47.215,210.717 47.206,200.087 47.139,189.457C46.418,189.483 45.675,189.521 44.955,189.465C44.156,189.403 43.629,189.076 43.126,188.492C45.12,187.045 67.115,187.92 71.263,187.877C74.011,187.869 76.751,187.719 79.483,187.427Z" style="fill:rgb(254,254,254);fill-rule:nonzero;"></path>
    <path d="M417.035,187.746C419.578,187.611 422.559,187.561 424.911,188.656L424.743,188.988C423.188,189.513 421.718,189.529 420.094,189.557C420.261,189.815 420.403,190.089 420.458,190.394C420.888,192.775 420.916,209.945 420.03,211.359C426.335,211.113 432.759,211.379 439.076,211.375C440.002,209.633 439.526,192.692 439.18,189.514C438.518,189.349 437.483,189.493 436.776,189.465C435.855,189.429 435.34,189.288 434.716,188.615C434.777,188.562 434.835,188.507 434.898,188.457C436.379,187.281 448.525,187.611 450.697,187.989C451.288,188.092 452.189,188.139 452.532,188.63C450.914,189.678 448.974,189.637 447.126,189.623C447.246,189.861 447.357,190.1 447.442,190.353C447.89,191.687 447.727,230.945 447.564,234.455C447.526,235.287 447.41,235.927 447.036,236.675C448.904,236.717 450.469,236.706 452.188,237.534L452.116,237.884C449.28,238.989 445.603,238.626 442.603,238.609C441.026,238.621 439.401,238.521 437.828,238.399C437.068,238.34 435.99,238.314 435.469,237.704C435.508,237.646 435.544,237.586 435.585,237.53C436.136,236.772 438.353,236.838 439.284,236.733C439.775,233.961 439.854,214.813 438.917,213.018C435.361,213.576 424.051,213.373 420.079,213.074C420.198,213.293 420.321,213.539 420.378,213.785C420.848,215.834 420.832,232.03 420.57,234.819C420.502,235.546 420.303,236.091 419.932,236.716C421.378,236.762 423.85,236.671 424.95,237.709C424.693,238.003 423.857,238.184 423.475,238.273C420.911,238.867 410.867,239.123 408.786,237.873L408.69,237.417C409.335,236.735 411.025,236.816 411.935,236.729C412.702,233.394 412.187,225.402 412.185,221.716C412.178,211.023 412.528,200.188 411.928,189.52C411.271,189.194 409.839,189.498 409.022,189.293C408.48,189.157 408.449,189.106 408.174,188.628L408.475,188.28C411.031,187.487 414.348,187.788 417.035,187.746Z" style="fill:rgb(254,254,254);fill-rule:nonzero;"></path>
    <path d="M128.469,189.514C127.78,189.518 127.086,189.527 126.397,189.494C125.56,189.453 125.09,189.39 124.532,188.769L124.699,188.161C126.843,188.363 135.689,188.168 136.773,189.108L136.843,189.339C139.547,189.718 143.515,189.879 146.234,189.421C147.111,188.449 151.453,188.89 152.967,188.788C155.34,189.139 158.079,190.718 159.798,192.38C160.089,192.664 160.366,192.962 160.628,193.273C160.89,193.585 161.136,193.909 161.365,194.245C161.595,194.581 161.807,194.928 162.002,195.285C162.197,195.643 162.373,196.009 162.532,196.384C162.69,196.759 162.829,197.141 162.949,197.53C163.069,197.919 163.169,198.313 163.25,198.712C163.331,199.111 163.391,199.514 163.432,199.919C163.473,200.324 163.493,200.73 163.493,201.137C163.498,201.522 163.485,201.906 163.452,202.289C163.419,202.673 163.366,203.054 163.295,203.432C163.224,203.81 163.133,204.184 163.024,204.553C162.915,204.922 162.788,205.284 162.643,205.641C162.497,205.997 162.334,206.345 162.154,206.685C161.973,207.025 161.776,207.355 161.562,207.675C161.349,207.995 161.12,208.303 160.875,208.6C160.63,208.897 160.371,209.181 160.098,209.452C154.487,215.033 144.228,214.007 136.919,214.024C137.218,217.825 136.916,221.743 136.923,225.559C136.93,229.233 137.292,233.066 136.875,236.712C138.443,236.841 140.772,236.686 142.188,237.249C142.627,237.423 142.684,237.466 142.891,237.913C142.788,238.013 142.718,238.097 142.596,238.167C140.965,239.105 127.401,238.621 125.081,237.928L124.997,237.632C126.148,236.921 127.794,237.146 128.683,236.248C128.785,235.075 128.569,233.868 128.566,232.681L128.58,222.433C128.682,211.46 128.645,200.487 128.469,189.514ZM136.843,189.339C137.338,193.795 136.985,198.469 136.961,202.953C136.944,206.009 137.198,209.17 136.881,212.203C141.718,212.081 148.636,213.613 152.33,209.699C154.621,207.27 154.933,203.727 154.799,200.554C154.658,197.234 153.778,194.106 151.255,191.787C149.773,190.424 148.112,189.979 146.234,189.421C143.515,189.879 139.547,189.718 136.843,189.339Z" style="fill:rgb(254,254,254);fill-rule:nonzero;"></path>
    <path d="M88.37,189.494C87.136,189.505 85.788,189.707 84.782,188.872C84.581,188.705 84.632,188.499 84.611,188.249C84.645,188.221 84.678,188.191 84.713,188.164C85.528,187.532 86.733,187.776 87.687,187.891C90.023,188.844 94.972,187.925 96.566,188.948L96.673,189.28C100.239,190.081 104.04,189.062 107.632,189.75L106.963,189.024C108.815,188.512 111.188,188.94 113.157,188.778C115.593,189.691 117.756,190.57 119.651,192.402C119.943,192.68 120.22,192.972 120.482,193.277C120.745,193.582 120.991,193.9 121.222,194.23C121.453,194.56 121.666,194.901 121.863,195.253C122.06,195.604 122.238,195.965 122.398,196.334C122.559,196.704 122.7,197.081 122.823,197.464C122.946,197.848 123.049,198.237 123.133,198.631C123.217,199.025 123.281,199.422 123.325,199.822C123.369,200.223 123.393,200.624 123.397,201.027C123.428,204.097 122.318,207.08 120.156,209.276C114.5,215.024 104.236,214 96.814,214.025C97.176,217.818 96.031,234.161 96.989,236.393C98.6,237.188 100.533,236.683 102.208,237.209C102.73,237.373 102.751,237.42 102.996,237.904C102.768,238.06 102.528,238.189 102.258,238.257C99.662,238.919 86.319,239.059 84.325,237.837L84.506,237.44C85.874,236.742 87.217,236.757 88.718,236.707C88.131,231.376 88.456,225.784 88.457,220.419C88.514,210.11 88.485,199.802 88.37,189.494ZM96.673,189.28C97.193,193.836 96.774,198.556 96.775,203.139C96.775,206.136 97.092,209.213 96.837,212.19C101.315,212.156 108.522,213.454 111.998,209.997C114.204,207.803 114.665,204.195 114.636,201.226C114.603,197.818 113.693,194.12 111.231,191.625C110.337,190.72 108.754,190.352 107.632,189.75C104.04,189.062 100.239,190.081 96.673,189.28Z" style="fill:rgb(254,254,254);fill-rule:nonzero;"></path>
    <path d="M522.01,187.746C522.371,187.731 522.732,187.722 523.093,187.718C530.623,187.639 542.672,186.784 548.384,192.491C548.679,192.785 548.959,193.093 549.224,193.414C549.488,193.736 549.736,194.07 549.967,194.417C550.198,194.764 550.411,195.121 550.606,195.489C550.801,195.857 550.978,196.234 551.135,196.62C551.292,197.005 551.43,197.398 551.548,197.798C551.666,198.197 551.764,198.602 551.842,199.011C551.919,199.42 551.976,199.833 552.013,200.248C552.049,200.663 552.064,201.078 552.059,201.495C552.042,204.495 550.922,207.305 548.772,209.413C543.011,215.064 532.437,214.079 524.988,213.979C525.186,214.299 525.353,214.64 525.42,215.015C525.819,217.244 525.958,230.24 525.027,231.715C525.186,231.942 525.32,232.184 525.398,232.451C525.826,233.91 525.665,235.424 524.968,236.759C526.865,236.834 528.702,236.947 530.574,237.274L530.872,237.861L531.013,237.838L530.998,237.856L531.543,237.624L531.427,237.782C528.274,238.896 516.913,239.236 513.947,237.898L513.853,237.434C514.601,236.812 515.996,236.856 516.971,236.735C517.667,234.918 517.202,229.99 517.195,227.855L517.194,202.679C517.187,198.464 516.72,194.021 517.326,189.848C516.16,188.853 514.252,189.97 513.059,188.773L513.269,188.27C515.739,187.416 519.373,187.786 522.01,187.746ZM525.516,189.505C525.257,193.726 526.526,209.806 524.915,212.253C528.264,212.171 538.236,213.28 540.277,210.23C540.32,210.166 540.347,210.092 540.382,210.023C541.652,209.321 542.265,207.901 542.647,206.558C543.764,202.63 543.6,197.564 541.576,193.946C540.408,191.859 538.897,190.581 536.583,189.944C533.118,188.991 529.092,189.577 525.516,189.505Z" style="fill:rgb(254,254,254);fill-rule:nonzero;"></path>
    <path d="M14.116,187.758C14.656,187.729 15.197,187.711 15.738,187.706C23.363,187.685 34.712,186.712 40.556,192.54C42.93,194.907 43.989,198.04 43.98,201.358C43.972,204.393 42.944,207.285 40.763,209.434C35.171,214.945 24.761,214.072 17.495,213.987L17.533,231.863C17.601,233.524 17.491,235.1 17.306,236.751C18.769,236.797 21.903,236.623 23.067,237.635L22.789,238.003C19.468,239.019 8.853,239.191 5.838,237.748L5.859,237.331C6.989,236.803 8.077,236.795 9.297,236.748C8.598,231.928 9.117,226.336 9.119,221.439C9.166,210.787 9.137,200.135 9.032,189.483C8.866,189.465 8.702,189.472 8.535,189.472C7.288,189.473 6.305,189.536 5.352,188.587L5.568,188.197C8.146,187.564 11.436,187.814 14.116,187.758ZM17.526,189.436C16.81,196.928 17.97,204.691 17.366,212.242C23.007,212.143 28.21,213.252 33.103,209.755C35.312,206.045 35.892,201.143 34.823,196.951C34.187,194.461 32.819,192.164 30.569,190.814C26.758,188.526 21.769,189.757 17.526,189.436Z" style="fill:rgb(254,254,254);fill-rule:nonzero;"></path>
    <path d="M480.83,187.746L481.955,187.731C489.928,187.665 503.067,186.592 509.052,192.555C509.337,192.836 509.606,193.131 509.861,193.439C510.116,193.747 510.355,194.067 510.578,194.399C510.801,194.731 511.006,195.073 511.195,195.426C511.384,195.779 511.554,196.14 511.707,196.509C511.86,196.879 511.993,197.255 512.108,197.638C512.223,198.021 512.318,198.409 512.394,198.802C512.47,199.195 512.526,199.59 512.563,199.989C512.599,200.387 512.615,200.786 512.612,201.186C512.607,204.285 511.444,207.213 509.238,209.402C503.452,215.14 493.061,214.018 485.533,214.015C485.734,214.325 485.895,214.652 485.979,215.015C486.444,217.023 486.408,229.772 485.552,231.13C485.678,231.313 485.791,231.505 485.868,231.715C486.444,233.277 486.355,235.266 485.632,236.74C487.466,236.783 490.011,236.785 491.733,237.395C492.018,237.497 491.984,237.595 492.107,237.857C492.058,237.906 492.012,237.958 491.961,238.005C491.013,238.869 477.892,238.757 475.872,238.518C474.984,238.413 473.983,238.288 473.417,237.567C474.527,236.624 476.109,236.775 477.48,236.734C477.564,236.599 477.636,236.461 477.693,236.312C477.917,235.73 477.677,204.278 477.66,200.865C477.652,199.234 477.911,190.317 477.516,189.481C476.728,189.516 475.803,189.62 475.027,189.5C474.301,189.387 473.901,189.107 473.474,188.542C474.871,187.332 479.022,187.763 480.83,187.746ZM486.206,189.505C485.858,190.612 486.13,191.949 486.118,193.104C486.079,196.791 486.684,209.62 485.635,212.166C489.516,212.235 497.72,213.304 500.587,210.499C500.759,210.331 500.773,210.241 500.857,210.024C502.38,209.053 503.07,207.436 503.455,205.719C504.326,201.828 503.964,196.688 501.781,193.26C500.502,191.251 498.802,190.294 496.529,189.806C493.219,189.095 489.579,189.558 486.206,189.505Z" style="fill:rgb(254,254,254);fill-rule:nonzero;"></path>
    <path d="M350.926,189.511C349.393,189.478 347.32,189.575 345.976,188.747C346.708,188.08 348.389,187.991 349.377,187.919C354.384,187.555 359.594,187.828 364.621,187.842C373.317,187.952 382.011,187.885 390.704,187.642C391.881,189.289 391.144,197.409 390.984,199.908C390.914,201.003 390.944,203.037 390.068,203.808C387.916,202.545 387.637,191.991 384.439,189.726C384.386,189.688 384.332,189.653 384.278,189.617C382.195,189.232 379.605,189.51 377.463,189.497C378.558,191.822 377.787,198.641 377.75,201.453C377.682,209.12 377.665,216.788 377.7,224.456C377.719,227.929 377.459,231.684 377.836,235.118C377.921,235.886 378.018,236.261 378.512,236.854C379.265,236.892 379.987,236.785 380.733,236.796C381.527,236.808 382.25,237.158 382.806,237.708C382.636,238.017 382.636,238.043 382.308,238.18C379.958,239.156 367.648,238.788 365.165,237.708L365.196,237.401C366.54,236.856 367.847,236.859 369.274,236.815C369.369,236.676 369.458,236.55 369.506,236.386C369.696,235.724 369.547,201.024 369.402,197.854C369.373,197.233 369.255,196.776 368.922,196.247C369.03,196.094 369.114,195.948 369.19,195.775C369.7,194.613 369.689,190.563 369.193,189.45C367.703,189.439 365.821,189.238 364.383,189.62C358.197,191.262 361.119,200.885 355.934,204.852C355.992,204.684 356.046,204.516 356.096,204.345L356.161,204.114C356.756,202.051 356.41,194.099 356.21,191.648C356.143,190.82 356.062,189.969 355.388,189.403C354.621,189.412 354.02,189.412 353.319,189.764C352.059,192.81 354.018,228.676 353.575,235.304C353.495,236.492 353.405,237.973 352.461,238.808C351.571,238.896 351.248,238.706 350.644,238.043C347.691,234.803 345.41,229.838 343.167,226.061L328.382,201.072C326.787,198.366 324.076,192.551 321.587,190.797C321.553,190.773 321.519,190.75 321.485,190.727C324.117,195.58 321.236,234.838 322.583,236.399C323.595,237.572 327.059,236.428 328.241,237.83C326.196,238.948 321.694,238.731 319.344,238.648C318.276,238.61 316.24,238.551 315.509,237.765L315.816,237.309C317.116,236.587 318.612,236.761 320.052,236.788C320.127,236.667 320.187,236.565 320.232,236.429C320.641,235.197 320.436,194.979 320.22,190.377C320.203,190.022 320.077,189.718 319.911,189.407C318.727,189.502 316.815,189.842 315.776,189.218C315.397,188.991 315.432,188.885 315.319,188.48C316.507,187.354 321.889,187.804 323.582,187.745C325.131,187.692 327.127,187.395 328.6,187.913C328.648,187.93 328.695,187.949 328.743,187.965C329.246,188.14 329.598,188.337 329.964,188.735C331.657,190.573 332.944,193.366 334.217,195.532L341.68,208.241C344.235,212.57 348.249,218.42 350.22,222.831C350.47,223.39 350.45,224.013 350.412,224.612C350.575,224.329 350.745,224.033 350.855,223.725C351.566,221.728 351.72,191.385 350.926,189.511Z" style="fill:rgb(254,254,254);fill-rule:nonzero;"></path>
    <path d="M282.736,187.761C287.813,187.532 292.877,187.899 297.951,187.888C302.217,187.879 306.688,187.405 310.926,187.768C311.874,187.85 312.679,188.109 313.545,188.496L313.925,188.948C312.838,189.89 310.27,189.586 308.902,189.546C309.299,190.1 309.426,190.614 309.466,191.286C310.007,200.282 309.51,210.519 309.52,219.657C309.525,223.72 310.066,231.911 309.431,235.444C309.354,235.877 309.272,236.289 309.04,236.667C310.874,236.681 312.099,236.728 313.73,237.688L313.87,238.082C312.226,238.821 280.158,238.962 278.013,238.26C277.818,238.196 277.628,238.049 277.472,237.92L277.746,238.143L277.363,237.46C278.722,236.575 281.639,236.825 283.223,236.806C284.132,234.588 283.449,228.153 283.427,225.572C283.336,214.875 283.798,204.063 283.421,193.385C283.405,192.944 283.258,192.818 283.669,192.584L283.168,192.652L283.26,191.809C281.524,194.718 281.219,200.915 279.016,203.089L278.266,202.933C278.159,202.311 278.018,201.83 277.714,201.274L277.627,201.117C279.668,198.647 280.667,191.321 282.647,187.986C282.732,187.843 282.707,187.907 282.736,187.761ZM295.688,189.505C294.171,189.532 292.653,189.538 291.135,189.523C291.679,190.283 291.889,190.874 291.935,191.81C292.091,195.035 291.826,198.384 291.786,201.619C291.743,207.654 291.73,213.688 291.749,219.723C291.738,223.039 291.765,226.355 291.832,229.67C291.877,231.57 292.175,233.835 291.899,235.707C291.852,236.021 291.772,236.321 291.67,236.621C293.155,236.714 294.638,236.796 296.116,236.97C297.687,236.892 299.317,236.723 300.886,236.787C301.482,235.678 301.359,194.487 300.923,189.514C299.21,189.343 297.411,189.475 295.688,189.505Z" style="fill:rgb(254,254,254);fill-rule:nonzero;"></path>
    <path d="M369.672,119.154C370.272,119.081 370.799,119.153 371.279,119.552C372.723,120.753 399.385,164.108 402.064,168.951C402.338,169.447 402.459,169.877 402.512,170.44C395.217,170.74 387.801,170.46 380.493,170.444L351.97,170.457C352.121,170.297 352.264,170.131 352.4,169.958C353.475,168.594 358.58,160.306 358.422,159.01C358.773,157.555 354.507,147.235 353.632,145.531C355.341,144.393 367.579,122.756 369.672,119.154Z" style="fill:rgb(238,28,35);fill-rule:nonzero;"></path>
    <path d="M246.959,189.44C245.453,189.504 243.14,189.696 241.925,188.633L242.042,188.464C242.944,188.079 243.885,187.927 244.857,187.852C247.446,187.655 254.508,186.993 256.49,188.673C257.757,190.854 268.809,225.02 268.775,227.252L270.118,227.657C270.432,228.478 270.219,228.94 270.048,229.791C270.239,230.33 270.222,230.676 270.078,231.224C269.596,233.058 268.501,237.62 266.765,238.635C265.978,238.635 265.403,238.67 264.865,237.989C264.036,236.94 263.798,235.058 263.325,233.797C259.574,223.789 256.724,213.215 253.514,203.002C252.405,199.476 251.505,195.51 250.045,192.146C249.743,191.45 249.175,190.84 248.645,190.31C248.765,190.581 248.878,190.853 248.978,191.133C250.027,194.056 249.796,229.988 249.505,234.451C249.45,235.295 249.306,235.966 248.942,236.73C250.818,236.788 253.36,236.658 255.008,237.704L254.678,238.041C251.872,238.738 238.06,238.997 235.535,238.488C234.825,238.345 234.309,237.874 233.824,237.363C231.134,234.53 228.914,230.863 226.639,227.682C223.025,222.629 219.228,217.626 215.906,212.376C216.11,217.41 216.07,222.435 216.104,227.471C216.124,230.508 216.473,233.725 215.92,236.717C216.516,236.748 217.112,236.766 217.708,236.799C218.953,236.869 220.37,236.969 221.244,237.947C221.133,238.034 221.009,238.126 220.88,238.184C219.208,238.929 205.545,238.892 203.608,238.294L203.418,237.804L203.71,237.174C204.471,236.47 206.862,236.644 207.932,236.608C207.392,233.273 207.686,229.529 207.684,226.145L207.68,207.344C207.677,202.432 207.065,194.06 207.759,189.493C206.371,189.478 204.997,189.543 203.717,188.925L203.686,188.519C204.275,188.201 204.855,188.039 205.514,187.934C209.737,187.264 226.888,187.586 231.113,188.458C233.257,188.901 235.379,189.746 237.149,191.048C239.52,192.792 241.142,195.305 241.558,198.243C241.973,201.171 241.23,204.328 239.433,206.69C236.039,211.15 230.775,212.164 225.548,212.862C229.538,218.151 233.3,223.635 237.154,229.025C238.728,231.228 240.323,233.968 242.216,235.883C243.448,237.129 245.455,236.803 247.078,236.799C247.172,236.654 247.261,236.521 247.309,236.353C247.661,235.115 247.48,194.268 247.255,190.463C247.233,190.076 247.139,189.784 246.959,189.44ZM216.204,189.444C215.818,190.619 216.132,192.228 216.125,193.475C216.097,198.651 216.559,206.858 215.922,211.667C220.757,211.502 225.138,211.619 229.351,208.923C231.903,206.211 232.948,203.358 232.831,199.639C232.741,196.813 231.872,193.862 229.751,191.887C226.141,188.526 220.674,189.724 216.204,189.444Z" style="fill:rgb(254,254,254);fill-rule:nonzero;"></path>
    <path d="M571.593,186.867L571.759,186.859C577.732,186.627 582.675,187.767 587.161,191.916C592.678,197.018 595.271,204.878 595.549,212.24C595.829,219.676 593.496,227.771 588.339,233.268C585.394,236.406 580.971,239.266 576.556,239.41C572.819,240.315 567.826,238.96 564.607,236.998C558.925,233.535 555.43,227.456 553.91,221.103C551.991,213.079 552.889,203.886 557.266,196.8C560.753,191.155 565.239,188.379 571.593,186.867ZM572.248,188.332C569.388,189.124 567.317,190.092 565.769,192.803C561.57,200.16 561.794,221.362 563.991,229.27C564.786,232.134 566.137,235.275 568.85,236.788C570.762,237.855 573.151,238.176 575.317,238.055C577.861,237.875 579.796,237.125 581.51,235.155C586.899,228.962 586.323,213.566 585.724,205.635C585.379,201.076 584.625,193.71 580.966,190.502C578.897,188.688 575.898,188.011 573.199,188.233C572.882,188.26 572.565,188.293 572.248,188.332Z" style="fill:rgb(254,254,254);fill-rule:nonzero;"></path>
    <path d="M143.336,110.509C145.362,111.577 160.93,135.544 163.413,139.28C163.618,142.194 163.341,145.125 163.142,148.032C162.341,159.714 162.943,159.724 167.797,170.353C164.1,170.776 160.125,170.478 156.396,170.474L134.619,170.446C126.126,170.405 117.634,170.435 109.141,170.535C111.137,166.086 113.777,161.791 116.186,157.553L127.696,137.335L137.063,120.857C139.029,117.404 140.884,113.633 143.336,110.509Z" style="fill:rgb(238,28,35);fill-rule:nonzero;"></path>
    <path d="M247.576,2.769C248.8,2.602 249.938,2.518 251.168,2.663C260.07,3.712 268.964,5.347 277.819,6.743L324.637,14.101C328.233,14.665 348.608,17.377 350.274,18.187C350.43,22.447 348.44,29.988 347.609,34.35C346.525,40.042 345.738,46.125 344.119,51.686C343.852,52.603 343.421,53.398 342.898,54.193C347.069,50.993 358.001,25.593 361.479,23.318C362.097,22.914 363.039,23.192 363.712,23.358C369.618,24.82 377.192,28.264 383.134,30.481C390.06,33.065 399.027,35.677 405.407,39.01C408.043,40.387 422.743,51.572 424.074,53.813C427.861,53.339 431.72,52.342 435.499,51.689C440.024,50.906 446.12,50.395 450.359,48.996C451.445,51.01 450.389,66.406 449.634,69.014C452.436,70.212 466.126,80.102 468.185,82.278C471.68,85.971 472.793,98.223 474.095,103.588C476.11,111.891 490.925,134.63 490.682,139.746C490.543,142.672 485.028,162.414 483.209,164.028C483.17,164.056 483.134,164.087 483.093,164.111C481.183,165.233 473.125,166.377 470.452,166.999C466.641,167.887 459.27,170.145 455.643,170.049C451.714,169.945 433.941,159.257 429.228,156.679C426.793,155.346 424.227,153.667 421.556,152.898L421.42,152.861C422.357,151.757 426.772,141.883 426.673,140.633C422.898,142.05 411.919,144.115 407.664,144.649C407.541,144.453 382.777,128.757 379.862,126.716C379.894,126.628 379.938,126.518 379.958,126.423C380.191,125.279 378.396,104.019 377.962,101.917C377.887,101.552 377.699,101.239 377.486,100.939C377.386,101.865 377.159,102.589 376.721,103.41C373.808,108.864 345.818,154.706 343.909,156.268C344.119,156.547 344.28,156.835 344.43,157.149C345.425,159.221 348.658,168.559 348.018,170.39C344.182,171.035 333.95,170.439 329.562,170.429C313.526,170.391 297.386,170.07 281.361,170.578C282.178,169.883 282.713,169.17 282.83,168.082C282.979,167.953 283.123,167.82 283.262,167.681C285.647,165.299 290.259,157.587 292.618,154.156L314.778,122.313C316.429,119.965 325.567,107.807 325.865,106.866C325.965,106.55 325.868,105.839 325.868,105.481C325.696,106.175 325.423,106.643 324.958,107.185C318.38,114.85 310.636,121.857 303.504,129.002C298.465,134.051 293.602,139.765 288.138,144.305C287.226,145.062 286.609,145.433 285.406,145.58C282.504,145.933 279.394,145.728 276.468,145.724L260.423,145.699L242.619,145.707C238.897,145.713 235.101,145.87 231.396,145.521C227.14,142.428 223.382,138.511 219.499,134.964C210.893,127.105 202.378,119.15 193.953,111.097C195.974,114.673 198.726,117.989 200.965,121.452L220.805,152.162C224.664,158.164 228.821,164.119 232.186,170.413C227.198,170.93 221.73,170.473 216.698,170.462L188.847,170.449C182.978,170.451 177.036,170.278 171.18,170.687C171.714,165.252 173.314,158.452 174.781,153.151C171.364,148.573 168.302,143.633 165.155,138.863L151.663,118.548C147.163,111.744 141.87,105.059 137.899,97.969C131.24,106.175 125.434,115.033 118.388,122.963C118.715,114.713 119.194,106.459 119.63,98.213C119.855,93.956 119.614,89.075 120.635,84.937C121.503,81.415 127.606,72.458 129.703,68.896C137.182,56.19 144.551,43.298 152.361,30.796C153.137,29.554 154.554,27.168 155.899,26.51C159.106,24.942 163.461,24.439 166.958,23.592C170.071,22.838 173.155,21.938 176.25,21.113L220.781,9.606C229.705,7.318 238.595,4.822 247.576,2.769Z" style="fill:rgb(238,28,35);fill-rule:nonzero;"></path>
</svg>
